# xmcd
# 
# Track frame offsets:
#     150
#     20926
#     40022
#     55727
# 
# Disc length: 1144
# 
# Revision: 0
# Processed by: cddbd v1.5.2PL0 Copyright (c) Steve Scherf et al.
# Submitted via: fre:ac v1.0.17
# 
DISCID=2d047604
DTITLE=Queen - Forever
DYEAR=2014
DGENRE=
TTITLE0=Let Me In Your Heart Again
TTITLE1=Love Kills (The Ballad)
TTITLE2=There Must Be More to Life Than This (with Michael Jackson)
TTITLE3=Let Me In Your Heart Again [(RED) version]
EXTD=
EXTT0=
EXTT1=
EXTT2=
EXTT3=
PLAYORDER=
